<?xml version="1.0" encoding="UTF-8" standalone="no"?>
<!DOCTYPE svg PUBLIC "-//W3C//DTD SVG 1.1//EN" "http://www.w3.org/Graphics/SVG/1.1/DTD/svg11.dtd">
<svg xmlns="http://www.w3.org/2000/svg" version="1.1" viewBox="0.00 0.00 328.00 404.00">
<g stroke-width="2.00" fill="none" stroke-linecap="butt">
<path stroke="#7c7d7e" vector-effect="non-scaling-stroke" d="
  M 177.57 337.19
  C 185.83 337.11 193.48 336.68 196.76 327.96
  C 198.51 323.31 197.71 315.48 197.77 309.75
  Q 197.77 309.21 198.31 309.22
  Q 212.71 309.34 216.99 309.11
  Q 232.41 308.27 245.41 297.40
  Q 257.16 287.58 260.93 272.28
  Q 262.29 266.75 262.30 256.61
  Q 262.38 193.48 262.31 130.35
  Q 262.30 120.72 260.97 115.28
  C 256.56 97.25 242.08 82.82 223.63 79.01
  Q 218.59 77.97 208.29 77.97
  Q 191.61 77.96 174.87 77.97
  Q 174.31 77.97 174.31 77.41
  Q 174.20 69.10 174.26 60.79
  Q 174.30 55.75 173.21 53.36
  C 168.25 42.50 151.87 46.47 152.21 58.76
  Q 152.36 64.02 152.16 77.43
  Q 152.16 77.96 151.63 77.96
  Q 132.94 77.97 114.25 77.89
  C 91.07 77.79 71.22 92.67 65.59 115.00
  Q 64.27 120.25 64.23 129.14
  Q 64.11 160.27 64.21 191.00
  A 4.54 4.54 0.0 0 0 68.75 195.53
  Q 87.00 195.55 105.76 195.55
  C 117.81 195.54 122.40 210.91 111.55 216.44
  Q 109.03 217.72 104.53 217.74
  Q 86.68 217.79 68.46 217.75
  A 4.26 4.26 0.0 0 0 64.19 222.01
  L 64.20 231.09
  A 4.37 4.36 -0.1 0 0 68.58 235.45
  Q 86.79 235.42 104.30 235.48
  C 108.96 235.49 112.30 236.23 115.13 239.63
  C 119.60 244.98 117.80 253.33 111.54 256.35
  Q 108.61 257.76 102.22 257.74
  Q 83.65 257.70 65.34 257.74
  A 1.20 1.19 -0.7 0 0 64.15 258.95
  C 64.41 283.10 81.05 303.78 104.99 308.29
  C 111.98 309.61 120.48 309.33 128.20 309.22
  Q 128.72 309.21 128.73 309.73
  C 128.91 319.79 126.31 331.79 138.23 336.16
  C 141.65 337.41 145.96 337.09 149.79 337.07
  Q 150.32 337.06 150.39 337.59
  Q 151.97 348.30 161.28 353.95
  Q 173.47 361.35 187.15 364.53
  Q 194.34 366.20 207.00 366.62
  Q 236.23 367.61 255.41 366.87
  C 266.88 366.43 269.75 350.38 259.33 345.90
  Q 256.40 344.64 249.48 344.69
  Q 229.24 344.85 209.00 344.53
  Q 191.12 344.24 177.45 337.71
  Q 176.38 337.20 177.57 337.19"
/>
<path stroke="#7c7d7e" vector-effect="non-scaling-stroke" d="
  M 106.27 125.98
  C 120.86 125.59 121.59 148.25 106.24 148.11
  Q 96.54 148.03 86.77 148.05
  Q 86.28 148.05 86.28 148.53
  L 86.27 158.29
  Q 86.27 158.73 86.70 158.85
  Q 125.40 170.21 162.24 163.74
  Q 190.84 158.71 205.00 157.49
  Q 215.41 156.59 239.48 156.88
  Q 240.03 156.89 240.04 156.34
  Q 240.19 142.04 240.19 127.75
  C 240.19 115.86 232.98 105.08 221.76 101.57
  Q 217.46 100.23 205.61 100.21
  Q 161.89 100.15 118.16 100.21
  Q 109.46 100.22 104.98 101.62
  Q 88.85 106.63 86.37 125.35
  Q 86.29 125.92 86.87 125.94
  Q 96.55 126.24 106.27 125.98"
/>
</g>
<path fill="#f8fafb" d="
  M 0.00 0.00
  L 328.00 0.00
  L 328.00 404.00
  L 0.00 404.00
  L 0.00 0.00
  Z
  M 177.57 337.19
  C 185.83 337.11 193.48 336.68 196.76 327.96
  C 198.51 323.31 197.71 315.48 197.77 309.75
  Q 197.77 309.21 198.31 309.22
  Q 212.71 309.34 216.99 309.11
  Q 232.41 308.27 245.41 297.40
  Q 257.16 287.58 260.93 272.28
  Q 262.29 266.75 262.30 256.61
  Q 262.38 193.48 262.31 130.35
  Q 262.30 120.72 260.97 115.28
  C 256.56 97.25 242.08 82.82 223.63 79.01
  Q 218.59 77.97 208.29 77.97
  Q 191.61 77.96 174.87 77.97
  Q 174.31 77.97 174.31 77.41
  Q 174.20 69.10 174.26 60.79
  Q 174.30 55.75 173.21 53.36
  C 168.25 42.50 151.87 46.47 152.21 58.76
  Q 152.36 64.02 152.16 77.43
  Q 152.16 77.96 151.63 77.96
  Q 132.94 77.97 114.25 77.89
  C 91.07 77.79 71.22 92.67 65.59 115.00
  Q 64.27 120.25 64.23 129.14
  Q 64.11 160.27 64.21 191.00
  A 4.54 4.54 0.0 0 0 68.75 195.53
  Q 87.00 195.55 105.76 195.55
  C 117.81 195.54 122.40 210.91 111.55 216.44
  Q 109.03 217.72 104.53 217.74
  Q 86.68 217.79 68.46 217.75
  A 4.26 4.26 0.0 0 0 64.19 222.01
  L 64.20 231.09
  A 4.37 4.36 -0.1 0 0 68.58 235.45
  Q 86.79 235.42 104.30 235.48
  C 108.96 235.49 112.30 236.23 115.13 239.63
  C 119.60 244.98 117.80 253.33 111.54 256.35
  Q 108.61 257.76 102.22 257.74
  Q 83.65 257.70 65.34 257.74
  A 1.20 1.19 -0.7 0 0 64.15 258.95
  C 64.41 283.10 81.05 303.78 104.99 308.29
  C 111.98 309.61 120.48 309.33 128.20 309.22
  Q 128.72 309.21 128.73 309.73
  C 128.91 319.79 126.31 331.79 138.23 336.16
  C 141.65 337.41 145.96 337.09 149.79 337.07
  Q 150.32 337.06 150.39 337.59
  Q 151.97 348.30 161.28 353.95
  Q 173.47 361.35 187.15 364.53
  Q 194.34 366.20 207.00 366.62
  Q 236.23 367.61 255.41 366.87
  C 266.88 366.43 269.75 350.38 259.33 345.90
  Q 256.40 344.64 249.48 344.69
  Q 229.24 344.85 209.00 344.53
  Q 191.12 344.24 177.45 337.71
  Q 176.38 337.20 177.57 337.19
  Z"
/>
<path fill="#6067eb" d="
  M 177.45 337.71
  Q 191.12 344.24 209.00 344.53
  Q 229.24 344.85 249.48 344.69
  Q 256.40 344.64 259.33 345.90
  C 269.75 350.38 266.88 366.43 255.41 366.87
  Q 236.23 367.61 207.00 366.62
  Q 194.34 366.20 187.15 364.53
  Q 173.47 361.35 161.28 353.95
  Q 151.97 348.30 150.39 337.59
  Q 150.32 337.06 149.79 337.07
  C 145.96 337.09 141.65 337.41 138.23 336.16
  C 126.31 331.79 128.91 319.79 128.73 309.73
  Q 128.72 309.21 128.20 309.22
  C 120.48 309.33 111.98 309.61 104.99 308.29
  C 81.05 303.78 64.41 283.10 64.15 258.95
  A 1.20 1.19 -0.7 0 1 65.34 257.74
  Q 83.65 257.70 102.22 257.74
  Q 108.61 257.76 111.54 256.35
  C 117.80 253.33 119.60 244.98 115.13 239.63
  C 112.30 236.23 108.96 235.49 104.30 235.48
  Q 86.79 235.42 68.58 235.45
  A 4.37 4.36 -0.1 0 1 64.20 231.09
  L 64.19 222.01
  A 4.26 4.26 0.0 0 1 68.46 217.75
  Q 86.68 217.79 104.53 217.74
  Q 109.03 217.72 111.55 216.44
  C 122.40 210.91 117.81 195.54 105.76 195.55
  Q 87.00 195.55 68.75 195.53
  A 4.54 4.54 0.0 0 1 64.21 191.00
  Q 64.11 160.27 64.23 129.14
  Q 64.27 120.25 65.59 115.00
  C 71.22 92.67 91.07 77.79 114.25 77.89
  Q 132.94 77.97 151.63 77.96
  Q 152.16 77.96 152.16 77.43
  Q 152.36 64.02 152.21 58.76
  C 151.87 46.47 168.25 42.50 173.21 53.36
  Q 174.30 55.75 174.26 60.79
  Q 174.20 69.10 174.31 77.41
  Q 174.31 77.97 174.87 77.97
  Q 191.61 77.96 208.29 77.97
  Q 218.59 77.97 223.63 79.01
  C 242.08 82.82 256.56 97.25 260.97 115.28
  Q 262.30 120.72 262.31 130.35
  Q 262.38 193.48 262.30 256.61
  Q 262.29 266.75 260.93 272.28
  Q 257.16 287.58 245.41 297.40
  Q 232.41 308.27 216.99 309.11
  Q 212.71 309.34 198.31 309.22
  Q 197.77 309.21 197.77 309.75
  C 197.71 315.48 198.51 323.31 196.76 327.96
  C 193.48 336.68 185.83 337.11 177.57 337.19
  Q 176.38 337.20 177.45 337.71
  Z
  M 106.27 125.98
  C 120.86 125.59 121.59 148.25 106.24 148.11
  Q 96.54 148.03 86.77 148.05
  Q 86.28 148.05 86.28 148.53
  L 86.27 158.29
  Q 86.27 158.73 86.70 158.85
  Q 125.40 170.21 162.24 163.74
  Q 190.84 158.71 205.00 157.49
  Q 215.41 156.59 239.48 156.88
  Q 240.03 156.89 240.04 156.34
  Q 240.19 142.04 240.19 127.75
  C 240.19 115.86 232.98 105.08 221.76 101.57
  Q 217.46 100.23 205.61 100.21
  Q 161.89 100.15 118.16 100.21
  Q 109.46 100.22 104.98 101.62
  Q 88.85 106.63 86.37 125.35
  Q 86.29 125.92 86.87 125.94
  Q 96.55 126.24 106.27 125.98
  Z"
/>
<path fill="#f8fafb" d="
  M 106.24 148.11
  C 121.59 148.25 120.86 125.59 106.27 125.98
  Q 96.55 126.24 86.87 125.94
  Q 86.29 125.92 86.37 125.35
  Q 88.85 106.63 104.98 101.62
  Q 109.46 100.22 118.16 100.21
  Q 161.89 100.15 205.61 100.21
  Q 217.46 100.23 221.76 101.57
  C 232.98 105.08 240.19 115.86 240.19 127.75
  Q 240.19 142.04 240.04 156.34
  Q 240.03 156.89 239.48 156.88
  Q 215.41 156.59 205.00 157.49
  Q 190.84 158.71 162.24 163.74
  Q 125.40 170.21 86.70 158.85
  Q 86.27 158.73 86.27 158.29
  L 86.28 148.53
  Q 86.28 148.05 86.77 148.05
  Q 96.54 148.03 106.24 148.11
  Z"
/>
</svg>
