<?xml version="1.0" encoding="UTF-8" standalone="no"?>
<!DOCTYPE svg PUBLIC "-//W3C//DTD SVG 1.1//EN" "http://www.w3.org/Graphics/SVG/1.1/DTD/svg11.dtd">
<svg xmlns="http://www.w3.org/2000/svg" version="1.1" viewBox="0.00 0.00 275.00 275.00">
<path fill="#7c7d7e" d="
  M 222.00 0.00
  L 224.95 0.00
  Q 229.08 1.34 231.74 4.01
  Q 251.47 23.76 271.24 43.49
  C 272.29 44.54 272.85 45.75 273.86 46.90
  A 1.51 1.48 23.7 0 1 274.21 47.77
  Q 274.28 48.98 275.00 50.00
  L 275.00 53.12
  C 272.68 59.08 269.23 62.81 262.01 61.50
  C 258.41 60.84 252.27 53.60 249.44 50.63
  Q 248.92 50.08 248.38 50.62
  L 230.89 68.12
  Q 230.54 68.47 230.89 68.84
  Q 240.30 78.41 249.89 87.84
  C 253.91 91.79 255.67 94.88 253.50 100.23
  Q 253.32 100.67 252.94 100.96
  Q 252.43 101.35 252.38 101.95
  Q 252.33 102.44 252.00 102.80
  Q 248.17 106.82 242.94 106.45
  C 238.38 106.12 233.48 100.53 230.64 97.22
  A 0.56 0.56 0.0 0 0 229.82 97.19
  Q 182.86 144.15 136.32 190.68
  C 132.70 194.30 127.72 195.95 122.94 197.29
  Q 113.82 199.84 104.70 197.61
  Q 104.32 197.51 103.94 197.59
  Q 103.34 197.71 103.08 197.23
  A 0.73 0.73 0.0 0 0 101.93 197.06
  Q 93.12 205.89 84.24 214.74
  C 80.40 218.57 72.99 221.62 67.70 219.03
  C 66.59 218.48 66.02 218.72 65.14 219.59
  Q 38.76 245.97 12.39 272.35
  C 11.11 273.63 9.70 274.12 8.15 275.00
  L 5.13 275.00
  Q 1.02 273.21 0.00 268.99
  L 0.00 266.75
  Q 1.17 264.09 1.88 263.38
  Q 28.94 236.34 55.92 209.34
  A 0.82 0.82 0.0 0 0 56.14 208.53
  Q 54.75 203.59 55.64 199.03
  C 56.07 196.89 57.84 193.11 59.48 191.49
  Q 68.66 182.38 77.77 173.21
  Q 78.16 172.82 78.00 172.29
  C 77.69 171.26 77.30 170.54 77.12 169.55
  Q 73.40 149.36 88.02 134.74
  Q 132.91 89.90 177.71 45.05
  A 0.43 0.43 0.0 0 0 177.71 44.43
  C 174.82 41.55 170.82 38.27 169.27 34.85
  C 166.00 27.68 173.26 18.65 180.94 20.88
  Q 183.75 21.70 187.78 25.76
  Q 197.00 35.03 206.25 44.23
  A 0.36 0.35 44.4 0 0 206.76 44.23
  L 224.38 26.62
  A 0.73 0.72 44.7 0 0 224.37 25.58
  Q 219.74 21.12 215.83 16.91
  C 210.17 10.81 214.21 1.43 222.00 0.00
  Z
  M 143.34 132.35
  A 0.49 0.49 0.0 0 1 143.34 131.65
  L 152.15 122.84
  A 0.49 0.49 0.0 0 1 152.85 122.84
  L 163.78 133.78
  A 0.49 0.49 0.0 0 0 164.48 133.78
  L 174.78 123.49
  A 0.49 0.49 0.0 0 0 174.78 122.79
  L 163.85 111.85
  A 0.49 0.49 0.0 0 1 163.85 111.15
  L 172.77 102.21
  A 0.49 0.49 0.0 0 1 173.47 102.21
  L 184.39 113.18
  A 0.49 0.49 0.0 0 0 185.09 113.18
  L 195.41 102.85
  A 0.49 0.49 0.0 0 0 195.41 102.15
  L 184.48 91.20
  A 0.49 0.49 0.0 0 1 184.48 90.50
  L 193.50 81.48
  A 0.49 0.49 0.0 0 1 194.20 81.48
  L 205.15 92.41
  A 0.49 0.49 0.0 0 0 205.85 92.41
  L 215.42 82.85
  A 0.49 0.49 0.0 0 0 215.42 82.15
  L 192.85 59.58
  A 0.49 0.49 0.0 0 0 192.15 59.58
  L 121.08 130.65
  A 0.49 0.49 0.0 0 0 121.08 131.35
  L 143.65 153.92
  A 0.49 0.49 0.0 0 0 144.35 153.92
  L 154.28 143.99
  A 0.49 0.49 0.0 0 0 154.28 143.29
  L 143.34 132.35
  Z"
/>
</svg>
